<svg width="24" height="24" fill="none" xmlns="http://www.w3.org/2000/svg"><path opacity=".15" d="M4 5a1 1 0 011-1h14a1 1 0 011 1v14a1 1 0 01-1 1H5a1 1 0 01-1-1V5z" fill="currentColor"/><path d="M4.027 18.329A2 2 0 006 20h12a2 2 0 002-2v-3.81M4.027 18.33A2.014 2.014 0 014 18V6a2 2 0 012-2h12a2 2 0 012 2v8.19M4.027 18.33l3.82-3.82a2 2 0 012.427-.16l.51.34a2 2 0 002.358-.103l2.648-2.118a2 2 0 012.333-.12c.08.052.15.115.217.182L20 14.19M11 9a2 2 0 11-4 0 2 2 0 014 0z" stroke="currentColor" stroke-width="1.5" stroke-linecap="round" stroke-linejoin="round"/></svg>
